<svg width="117" height="35" viewBox="0 0 117 35" fill="none" xmlns="http://www.w3.org/2000/svg">
<path d="M72.5827 27.3506C65.8642 32.3182 56.0917 34.9649 47.663 34.9649C35.8546 34.9649 25.2678 30.608 17.2056 23.3601C16.5948 22.7901 17.1241 22.0164 17.8978 22.4643C26.5708 27.5134 37.2798 30.5266 48.3552 30.5266C55.8067 30.5266 64.0318 28.9793 71.6055 25.7625C72.7456 25.3146 73.6821 26.5362 72.5827 27.3506Z" fill="#ABAFC7"/>
<path d="M75.3924 24.1337C74.5373 23.0343 69.6918 23.6043 67.5337 23.8894C66.8822 23.9708 66.76 23.4007 67.3708 22.9936C71.2391 20.2654 77.5504 21.0798 78.2834 21.9756C79.0163 22.8714 78.0798 29.2235 74.4558 32.2367C73.8858 32.6846 73.3564 32.4402 73.6007 31.8295C74.4151 29.7935 76.2474 25.2738 75.3924 24.1337Z" fill="#ABAFC7"/>
<path fill-rule="evenodd" clip-rule="evenodd" d="M24.6163 20.2656H21.0331C20.7073 20.2249 20.4223 19.9806 20.3816 19.6549V1.25009C20.3816 0.883621 20.7073 0.598591 21.0738 0.598591H24.4127C24.7792 0.598591 25.0235 0.883621 25.0642 1.20937V3.61176H25.1457C26.0007 1.29081 27.6702 0.191406 29.869 0.191406C32.1085 0.191406 33.5337 1.29081 34.5109 3.61176C35.366 1.29081 37.3612 0.191406 39.4786 0.191406C40.9852 0.191406 42.6139 0.802184 43.6319 2.22733C44.6023 3.54432 44.5697 5.3628 44.5385 7.10527C44.5331 7.40999 44.5277 7.71238 44.5277 8.00936V19.6549C44.5277 20.0213 44.2019 20.3063 43.8355 20.3063H40.2929C39.9265 20.2656 39.6414 19.9806 39.6414 19.6549V9.88241C39.6414 9.71588 39.6452 9.49464 39.6495 9.24265C39.6652 8.32394 39.6878 6.99651 39.56 6.42134C39.275 5.19978 38.5013 4.83332 37.4426 4.83332C36.5876 4.83332 35.651 5.40338 35.2846 6.3399C34.9504 7.19395 34.9548 8.55595 34.9582 9.5921C34.9585 9.69216 34.9588 9.78918 34.9588 9.88241V19.6549C34.9588 20.0213 34.6331 20.3063 34.2666 20.3063H30.6834C30.3169 20.2656 30.0319 19.9806 30.0319 19.6549V9.88241C30.0319 9.67956 30.0351 9.4666 30.0384 9.24756C30.0685 7.26824 30.1061 4.7926 27.8331 4.7926C25.3437 4.7926 25.3467 7.55344 25.3491 9.68896L25.3492 9.88241V19.6549C25.3085 19.9806 25.0235 20.2656 24.6163 20.2656ZM67.6558 3.8563V1.2096C67.6558 0.802417 67.9408 0.558105 68.3073 0.558105H80.1156C80.4821 0.558105 80.8079 0.843135 80.8079 1.2096V3.44912C80.8079 3.81559 80.4821 4.30421 79.912 5.11858L73.8043 13.8323C76.0845 13.7916 78.4869 14.1174 80.5228 15.2575C80.9707 15.5018 81.0929 15.909 81.1336 16.2754V19.085C81.1336 19.4922 80.7264 19.9401 80.2785 19.6958C76.6546 17.782 71.8091 17.5784 67.8186 19.7365C67.4115 19.9401 66.9636 19.5329 66.9636 19.1257V16.4383C66.9636 16.0311 66.9636 15.2982 67.4115 14.6467L74.4965 4.5078H68.348C67.9815 4.5078 67.6558 4.22277 67.6558 3.8563ZM99.2126 10.5746C99.2126 4.75188 96.3216 0.191406 90.9875 0.191406C85.7755 0.191406 82.8845 4.67044 82.9252 10.4118C82.9252 16.1123 85.7755 20.6728 90.9875 20.6728C96.0366 20.6728 99.2126 16.1938 99.2126 10.5746ZM90.9875 3.97803C88.3408 3.97803 88.1779 7.60197 88.1779 9.84149L88.1779 9.93616C88.1773 12.2134 88.1762 16.8858 90.9468 16.8858C93.7156 16.8858 93.8785 13.0175 93.8785 10.6559C93.8785 9.10856 93.7971 7.23551 93.3492 5.76964C92.942 4.46665 92.1276 3.97803 90.9875 3.97803ZM102.511 20.2656H106.094C106.461 20.2656 106.786 19.9806 106.827 19.6141V9.67882C106.827 8.41654 106.908 7.31714 107.397 6.17703C107.804 5.28122 108.619 4.71116 109.474 4.71116C111.758 4.71116 111.735 7.1907 111.716 9.17271C111.715 9.34587 111.713 9.51524 111.713 9.67882V19.6956C111.754 19.9806 112.039 20.2249 112.365 20.2656H115.948C116.314 20.2656 116.599 20.0213 116.64 19.6956V8.0908C116.64 6.29918 116.64 3.81535 115.704 2.34949C114.686 0.761465 113.098 0.191406 111.51 0.191406C109.026 0.191406 107.641 1.37224 106.623 3.89679H106.542V1.08721C106.461 0.802184 106.216 0.557873 105.89 0.557873H102.552C102.185 0.557873 101.9 0.842902 101.859 1.16865V19.6141C101.859 19.9399 102.144 20.2249 102.511 20.2656Z" fill="#ABAFC7"/>
<path fill-rule="evenodd" clip-rule="evenodd" d="M61.0186 20.3061C61.3037 20.469 61.6294 20.4283 61.8737 20.2247C62.1339 20.0079 62.4659 19.7244 62.8205 19.4216C63.465 18.8712 64.1843 18.257 64.6833 17.863C64.9683 17.6594 64.9276 17.2522 64.6833 16.9265C64.6048 16.8136 64.5257 16.7037 64.4472 16.5947C63.875 15.7997 63.3396 15.0558 63.3396 13.5876V8.00915C63.3396 7.82271 63.3406 7.63728 63.3416 7.45307C63.3534 5.30386 63.3642 3.32009 61.7516 1.81993C60.3671 0.476224 58.0869 0.0283203 56.336 0.0283203C52.9157 0.0283203 49.1288 1.29059 48.3145 5.52532C48.233 5.97322 48.5588 6.17681 48.8438 6.25825L52.3049 6.62472C52.6306 6.62472 52.8342 6.29897 52.9157 5.97322C53.2007 4.50736 54.4222 3.81514 55.8067 3.81514C56.5396 3.81514 57.354 4.10017 57.8019 4.75167C58.2699 5.39964 58.2604 6.2704 58.252 7.05443C58.2509 7.15723 58.2498 7.25853 58.2498 7.35765V7.80556C57.9119 7.8453 57.5569 7.88289 57.1907 7.92166C55.3059 8.12118 53.127 8.35185 51.4905 9.06783C49.251 10.0451 47.663 11.9996 47.663 14.9313C47.663 18.6367 50.0246 20.5097 53.0378 20.5097C55.5624 20.5097 56.9875 19.899 58.942 17.9037C59.0366 18.0398 59.1227 18.1664 59.2043 18.2865C59.6842 18.9926 60.0094 19.4709 61.0186 20.3061ZM58.25 11.6889C58.2499 11.6166 58.2498 11.5438 58.2498 11.4704V10.6968C55.6438 10.6968 52.9156 11.2668 52.9156 14.3207C52.9156 15.868 53.73 16.9267 55.1144 16.9267C56.1324 16.9267 57.0282 16.3159 57.5983 15.298C58.2538 14.1026 58.252 12.9803 58.25 11.6889Z" fill="#ABAFC7"/>
<path fill-rule="evenodd" clip-rule="evenodd" d="M13.9481 20.3061C14.2331 20.469 14.5589 20.4283 14.8032 20.2247C15.0633 20.0079 15.3953 19.7244 15.75 19.4216C16.3944 18.8712 17.1137 18.257 17.6127 17.863C17.8978 17.6594 17.8571 17.2522 17.6127 16.9265C17.5342 16.8136 17.4551 16.7037 17.3767 16.5947C16.8044 15.7997 16.269 15.0558 16.269 13.5876V8.00915C16.269 7.82271 16.27 7.63728 16.2711 7.45307C16.2828 5.30386 16.2937 3.32009 14.681 1.81993C13.2966 0.476224 11.0163 0.0283203 9.26545 0.0283203C5.8451 0.0283203 2.05827 1.29059 1.2439 5.52532C1.16247 5.97322 1.48821 6.17681 1.77324 6.25825L5.23432 6.62472C5.56006 6.62472 5.76366 6.29897 5.84509 5.97322C6.13012 4.50736 7.35168 3.81514 8.73611 3.81514C9.46904 3.81514 10.2834 4.10017 10.7313 4.75167C11.1993 5.39964 11.1899 6.2704 11.1814 7.05443C11.1803 7.15723 11.1792 7.25853 11.1792 7.35765V7.80556C10.8414 7.8453 10.4863 7.88289 10.1201 7.92166C8.23539 8.12118 6.05647 8.35185 4.41995 9.06783C2.18043 10.0451 0.592407 11.9996 0.592407 14.9313C0.592407 18.6367 2.95408 20.5097 5.96725 20.5097C8.4918 20.5097 9.91694 19.899 11.8714 17.9037C11.9661 18.0398 12.0521 18.1664 12.1337 18.2865C12.6137 18.9926 12.9388 19.4709 13.9481 20.3061ZM11.2202 11.6889C11.22 11.6166 11.2199 11.5438 11.2199 11.4704V10.6968C8.61395 10.6968 5.88581 11.2668 5.88581 14.3207C5.88581 15.868 6.70018 16.9267 8.08461 16.9267C9.10257 16.9267 9.99838 16.3159 10.5684 15.298C11.224 14.1026 11.2222 12.9803 11.2202 11.6889Z" fill="#ABAFC7"/>
</svg>
