<svg width="166" height="35" viewBox="0 0 166 35" fill="none" xmlns="http://www.w3.org/2000/svg">
<path d="M34.1071 21.5878C31.8057 30.8202 22.4564 36.4364 13.2239 34.135C3.99632 31.8336 -1.62145 22.4838 0.681013 13.2535C2.98132 4.02101 12.3301 -1.59676 21.5593 0.704625C30.7907 3.00601 36.4079 12.3569 34.1066 21.5878H34.1071Z" fill="#ABAFC7"/>
<path fill-rule="evenodd" clip-rule="evenodd" d="M24.991 14.9654C25.334 12.6727 23.5883 11.4401 21.2013 10.6179L21.9756 7.51205L20.085 7.0409L19.3312 10.0649C18.8276 9.94117 18.3229 9.82235 17.817 9.70844L18.5763 6.66451L16.6863 6.19336L15.912 9.29813C15.5006 9.20444 15.0967 9.11182 14.7047 9.01436L14.7069 9.00467L12.0996 8.35367L11.5967 10.3729C11.5967 10.3729 12.9994 10.6944 12.9698 10.7143C13.7355 10.9054 13.8739 11.4121 13.8507 11.8138L12.9687 15.3521C13.0215 15.3655 13.0899 15.3854 13.1653 15.4151L12.9655 15.3655L11.7292 20.3221C11.6355 20.5547 11.398 20.9036 10.8623 20.7711C10.8816 20.7986 9.48865 20.4281 9.48865 20.4281L8.55011 22.5927L11.0103 23.2066C11.2924 23.2769 11.5709 23.3495 11.8465 23.4213C12.0182 23.4661 12.1886 23.5105 12.3581 23.5539L11.5757 26.6953L13.4641 27.1664L14.2384 24.0579C14.7543 24.1984 15.255 24.3271 15.745 24.4494L14.9729 27.5428L16.8629 28.014L17.6458 24.8785C20.8696 25.4886 23.2937 25.2425 24.3141 22.3273C25.1363 19.9796 24.2732 18.6254 22.577 17.7417C23.8123 17.4564 24.7427 16.6438 24.991 14.9654ZM20.6709 21.0221C20.1346 23.1771 16.7599 22.285 15.2184 21.8775C15.0806 21.8411 14.9574 21.8085 14.8523 21.7824L15.8904 17.6206C16.0196 17.6529 16.1776 17.6884 16.3566 17.7286C17.9528 18.0871 21.2199 18.821 20.6709 21.0221ZM16.6755 15.7973C17.9617 16.1405 20.767 16.8892 21.2556 14.9321V14.9315C21.7547 12.9291 19.028 12.3255 17.6964 12.0307C17.5466 11.9976 17.4145 11.9683 17.3066 11.9414L16.3653 15.7161C16.4543 15.7382 16.5586 15.7661 16.6755 15.7973Z" fill="white"/>
<path fill-rule="evenodd" clip-rule="evenodd" d="M50.6594 10.6147C52.0567 10.6147 53.2639 10.8651 54.2779 11.3567C55.2977 11.8532 56.1388 12.5219 56.8135 13.363C57.479 14.2084 57.9744 15.1965 58.2943 16.3288C58.6119 17.465 58.7713 18.6852 58.7713 19.9915C58.7713 21.9999 58.4036 23.8953 57.661 25.683C56.9179 27.4734 55.911 29.0268 54.6295 30.3515C53.349 31.6745 51.837 32.7169 50.0935 33.4875C48.3526 34.2585 46.4599 34.6441 44.4278 34.6441C44.165 34.6441 43.703 34.6365 43.0504 34.6231C42.3978 34.6096 41.6477 34.5423 40.8077 34.4292C39.9048 34.3003 39.0092 34.1245 38.1246 33.9026C37.1987 33.6791 36.2993 33.3578 35.4414 32.9442L42.9863 1.24062L49.744 0.193848L47.0426 11.4439C47.6044 11.19 48.1874 10.986 48.785 10.8344C49.3984 10.6853 50.0276 10.6115 50.6589 10.6147H50.6594ZM44.991 29.2832C46.0087 29.2832 46.9672 29.0328 47.8686 28.5417C48.7746 28.0464 49.5697 27.371 50.2049 26.5569C50.8688 25.7082 51.3912 24.7577 51.7519 23.7424C52.1302 22.6928 52.3223 21.5853 52.3195 20.4696C52.3195 19.0739 52.0863 17.9873 51.6216 17.1995C51.1569 16.4161 50.297 16.0219 49.0478 16.0219C48.6386 16.0219 48.1119 16.1 47.4583 16.2395C46.8024 16.3875 46.2155 16.695 45.6894 17.1575L42.8124 29.1049C42.9858 29.1356 43.1393 29.1647 43.2701 29.1922C43.3983 29.2218 43.5393 29.2428 43.6809 29.2573C43.8301 29.274 44.0008 29.2826 44.207 29.2826L44.9905 29.2832H44.991ZM59.3249 34.0379H65.7794L71.2744 11.1011H64.7757L59.3249 34.0379ZM68.9202 8.3065C68.0397 8.31381 67.1812 8.03069 66.4778 7.50097C65.7471 6.96681 65.3847 6.14458 65.3847 5.03643C65.3847 4.42689 65.5086 3.85504 65.7546 3.3155C65.9924 2.79285 66.3259 2.31929 66.7379 1.91927C67.1507 1.52519 67.6302 1.20742 68.154 0.980735C68.6992 0.747767 69.2864 0.629367 69.8792 0.632889C70.7796 0.632889 71.5915 0.901043 72.3195 1.43843C73.0443 1.9785 73.4089 2.80073 73.4089 3.90297C73.4124 4.49792 73.2856 5.08643 73.0373 5.62712C72.8018 6.15028 72.4693 6.62405 72.0573 7.02335C71.6454 7.41795 71.1657 7.73498 70.6412 7.9592C70.1016 8.19504 69.5298 8.3065 68.9202 8.3065ZM83.6913 4.33892L76.9309 5.38623L72.6556 23.4387C72.3072 24.9211 72.1047 26.3297 72.0455 27.6694C71.9879 29.0064 72.1941 30.1926 72.6556 31.2211C73.1235 32.2538 73.9053 33.0702 75.0113 33.6668C76.1189 34.2591 77.6735 34.5568 79.6787 34.5568C81.0733 34.5568 82.28 34.4443 83.2993 34.2095C84.2607 33.9945 85.2075 33.7184 86.1338 33.383L85.6513 28.4103C85.0048 28.639 84.3425 28.8208 83.6698 28.9542C83.015 29.0855 82.336 29.1518 81.6398 29.1518C80.7944 29.1518 80.1499 29.0338 79.6992 28.7996C79.2469 28.5697 78.9356 28.2439 78.7623 27.8212C78.5878 27.3996 78.5135 26.8988 78.5458 26.3157C78.5738 25.7347 78.6739 25.1101 78.8506 24.4418L80.7675 16.4188H87.964L89.2714 11.0998H82.0313L83.6913 4.33892ZM88.9877 24.879C88.9877 22.9028 89.3075 21.0403 89.9461 19.2957C90.5842 17.55 91.5034 16.0234 92.6955 14.7139C93.8839 13.4108 95.3318 12.3775 97.0366 11.6194C98.7317 10.8655 100.631 10.4854 102.724 10.4854C104.034 10.4854 105.205 10.6092 106.235 10.8574C107.268 11.1078 108.203 11.4314 109.049 11.8374L106.824 16.899C106.23 16.6605 105.627 16.4496 105.014 16.2668C104.389 16.0746 103.627 15.982 102.725 15.982C100.571 15.982 98.8679 16.725 97.6004 18.2047C96.3371 19.686 95.7012 21.68 95.7012 24.1817C95.7012 25.664 96.0216 26.8621 96.6634 27.7791C97.302 28.6961 98.4818 29.1527 100.195 29.1527C101.04 29.1527 101.856 29.0644 102.637 28.8921C103.424 28.7177 104.12 28.498 104.732 28.2384L105.214 33.427C104.331 33.7658 103.428 34.0506 102.511 34.28C101.52 34.5223 100.342 34.6472 98.9761 34.6472C97.1734 34.6472 95.6463 34.3839 94.3981 33.8637C93.1489 33.3366 92.1167 32.636 91.303 31.7487C90.4857 30.8591 89.8993 29.8199 89.5364 28.6283C89.1734 27.4367 88.9871 26.1837 88.9871 24.879H88.9877ZM113.646 33.9462C114.782 34.4109 116.12 34.6457 117.661 34.6457C119.783 34.6457 121.653 34.2015 123.264 33.3146C124.879 32.4283 126.223 31.2878 127.298 29.8932C128.374 28.4965 129.19 26.9242 129.74 25.1849C130.289 23.4382 130.565 21.6903 130.565 19.9489C130.565 18.5548 130.378 17.2803 129.998 16.135C129.622 14.9843 129.061 13.9919 128.323 13.1465C127.578 12.3055 126.634 11.648 125.489 11.1844C124.338 10.7197 123.007 10.4844 121.495 10.4844C119.433 10.4844 117.598 10.9292 116.003 11.8133C114.407 12.7034 113.05 13.8449 111.95 15.2412C110.843 16.6352 110.005 18.2043 109.441 19.9489C108.873 21.6919 108.593 23.4387 108.593 25.1855C108.593 26.5785 108.776 27.8498 109.157 28.9978C109.537 30.1463 110.093 31.143 110.836 31.9841C111.578 32.8295 112.515 33.4821 113.646 33.9462ZM120.886 15.9825C119.929 15.9825 119.083 16.2598 118.359 16.8085C117.632 17.3636 117.022 18.062 116.53 18.9031C116.032 19.7485 115.664 20.6703 115.415 21.6724C115.167 22.6766 115.046 23.627 115.046 24.5279C115.046 25.9833 115.281 27.1179 115.742 27.9331C116.21 28.744 117.051 29.1527 118.272 29.1527C119.232 29.1527 120.074 28.8765 120.802 28.3224C121.525 27.7715 122.136 27.0732 122.632 26.2294C123.126 25.3894 123.498 24.4643 123.747 23.4601C123.991 22.4591 124.116 21.5044 124.116 20.6041C124.116 19.1524 123.882 18.0162 123.416 17.2015C122.952 16.3901 122.107 15.9819 120.886 15.9819V15.9825ZM131.14 34.0379H137.599L143.092 11.1011H136.591L131.14 34.0379ZM140.735 8.30651C139.856 8.31394 138.998 8.03078 138.296 7.50097C137.568 6.96681 137.203 6.14458 137.203 5.03643C137.203 4.42689 137.329 3.85505 137.574 3.31551C137.81 2.79223 138.144 2.31846 138.556 1.91928C138.97 1.52505 139.45 1.20728 139.974 0.980738C140.517 0.747724 141.102 0.629305 141.693 0.632892C142.596 0.632892 143.411 0.901045 144.137 1.43843C144.864 1.97851 145.23 2.80074 145.23 3.90297C145.23 4.51466 145.1 5.08866 144.856 5.62712C144.612 6.16558 144.284 6.6292 143.878 7.02335C143.465 7.41702 142.986 7.73393 142.462 7.9592C141.921 8.19505 141.349 8.30651 140.735 8.30651ZM149.376 11.6411C148.781 11.8285 148.234 12.0008 147.744 12.144L142.465 34.0341H148.965L153.195 16.2875C154.042 16.1147 154.903 16.026 155.767 16.0226C156.639 16.0226 157.283 16.19 157.709 16.5233C158.123 16.8517 158.408 17.3156 158.513 17.8334C158.633 18.3735 158.639 18.9986 158.536 19.7073C158.434 20.4223 158.296 21.1546 158.121 21.9112L155.243 34.0357H161.74L164.709 21.6511C165.549 18.2216 165.325 15.517 164.031 13.5403C162.735 11.5636 160.389 10.5723 156.985 10.5723C155.827 10.5723 154.784 10.6229 153.87 10.7268C152.955 10.8286 152.123 10.9605 151.386 11.122C150.708 11.2628 150.037 11.436 149.376 11.6411Z" fill="#ABAFC7"/>
</svg>
