<svg width="169" height="36" viewBox="0 0 169 36" fill="none" xmlns="http://www.w3.org/2000/svg">
<path fill-rule="evenodd" clip-rule="evenodd" d="M13.8227 25.7956C16.51 30.2016 21.4385 33.1577 26.9236 33.1577C35.0281 33.1577 39.4895 26.1636 39.4895 26.1636L40.0637 28.0267C36.3116 32.9065 29.6086 35.8462 22.1094 35.8462C13.4752 35.8462 6.02887 31.7274 2.60258 25.7876C1.31254 23.5504 0.592407 21.0514 0.592407 18.4196C0.592407 8.79525 10.2248 0.993652 22.109 0.993652C30.5059 0.993652 37.2665 4.59029 40.8155 9.8025L26.7263 18.2394L34.767 5.89272C32.4666 4.44595 29.6443 3.09117 26.7263 3.09117C18.4774 3.09117 11.6834 9.97471 11.6834 18.2233C11.6834 20.987 12.4682 23.5838 13.8227 25.7956ZM51.5478 25.7907C51.5055 26.0721 51.4844 26.3563 51.4846 26.6409C51.4846 29.772 54.0232 32.3109 57.1546 32.3109C60.286 32.3109 62.8243 29.7723 62.8243 26.6409C62.8244 26.3553 62.8032 26.07 62.7608 25.7876C62.3507 23.0629 59.997 20.9712 57.1543 20.9712C54.3118 20.9712 51.9578 23.0629 51.5478 25.7907ZM75.4044 35.2797L72.5865 25.7876L68.388 11.646C68.388 11.646 65.7355 4.42303 57.3649 7.46834C48.9943 10.514 47.1068 11.646 47.1068 11.646H58.4517L61.1443 20.6482C59.0731 18.8186 56.0417 17.6645 52.6644 17.6645C46.714 17.6645 41.8379 21.2472 41.3937 25.7876C41.3721 26.0183 41.3609 26.2444 41.3609 26.4721C41.3609 31.3368 46.4213 35.2797 52.6644 35.2797C57.8821 35.2797 62.2745 32.5252 63.576 28.7799L65.5196 35.2797H75.4044ZM104.191 25.7878V35.2799H94.0198V14.4249C94.0198 12.8903 92.7758 11.6463 91.2412 11.6463C90.0956 11.646 89.0674 12.3487 88.6515 13.4161V35.2799H78.669V11.6463H72.8473C72.8473 11.6463 80.9462 6.73975 83.7546 6.73975C86.4161 6.73975 88.386 8.78461 88.6323 11.3895C89.3863 10.9828 90.1392 10.5603 90.8824 10.1433C93.9998 8.39398 96.9477 6.73975 99.1056 6.73975C101.867 6.73975 104.114 8.9401 104.191 11.6834V25.7878ZM121.275 30.4663L119.859 25.7878L115.583 11.6459C115.815 9.80174 117.634 8.01953 119.541 8.01953C121.468 8.01953 123.054 9.47435 123.262 11.3458L127.488 25.7878L128.691 29.9001C128.708 30.042 128.716 30.186 128.716 30.3325C128.716 32.4 127.04 34.0756 124.973 34.0756C122.95 34.0756 121.302 32.4715 121.275 30.4663ZM136.046 25.7896C134.12 31.6303 128.619 35.8464 122.132 35.8464C115.645 35.8464 110.144 31.6306 108.217 25.7878C107.729 24.3069 107.482 22.7576 107.483 21.1984C107.483 13.1085 114.042 6.55078 122.132 6.55078C130.222 6.55078 136.781 13.1085 136.781 21.1984C136.781 22.8019 136.523 24.3456 136.046 25.7896ZM152.887 35.2799V25.7878V13.4161C153.303 12.3487 154.331 11.646 155.476 11.6463C157.011 11.6463 158.255 12.8903 158.255 14.4249V35.2799H168.426V11.6834C168.35 8.9401 166.102 6.73975 163.341 6.73975C161.183 6.73975 158.236 8.39358 155.119 10.1426C154.376 10.5599 153.623 10.9826 152.868 11.3895C152.621 8.78461 150.652 6.73975 147.99 6.73975C145.181 6.73975 137.322 11.6463 137.322 11.6463H142.904V35.2799H152.887Z" fill="#ABAFC7"/>
</svg>
