<svg width="170" height="35" viewBox="0 0 170 35" fill="none" xmlns="http://www.w3.org/2000/svg">
<path fill-rule="evenodd" clip-rule="evenodd" d="M21.0502 0.155273C24.6579 0.747581 28.0502 2.73989 30.204 5.70143C30.6348 6.29374 31.0655 6.93989 31.3886 7.63989C30.8658 8.00182 30.343 8.35625 29.8231 8.70877L29.823 8.70883C28.9505 9.30032 28.0859 9.88646 27.2425 10.4937C27.0271 10.6553 26.8655 10.763 26.5963 10.8707C25.9502 9.25527 24.8194 7.80143 23.3655 6.8322C22.2886 6.1322 21.0502 5.64758 19.8117 5.37835C20.1147 3.99311 20.4525 2.60787 20.7972 1.19466L20.7972 1.1945C20.8813 0.849887 20.9657 0.503615 21.0502 0.155273ZM8.01939 1.71681C9.68862 1.17835 11.6271 2.03989 12.3271 3.60143C12.9194 4.78604 12.7579 6.34758 11.9502 7.37066C10.9271 8.66297 8.98862 9.14758 7.53478 8.39373C6.56555 7.90912 5.8117 6.99373 5.59632 5.91681C5.43478 5.10912 5.48862 4.24758 5.91939 3.49373C6.35016 2.6322 7.15785 2.03989 8.01939 1.71681ZM4.52741 20.0661C3.21716 20.0542 1.91482 20.0423 0.588623 20.0781C0.9117 22.6627 1.71939 25.1397 3.11939 27.1858C4.30401 29.1243 5.97324 30.7935 7.85785 32.032C11.3579 34.3474 15.7194 35.2089 19.8655 34.6704C21.9655 34.4012 24.0655 33.7012 25.8963 32.6243C28.7502 30.9551 30.9579 28.3166 32.1425 25.2474C32.3579 24.7089 32.5732 24.1704 32.6271 23.632C31.8786 23.4052 31.1492 23.1592 30.4228 22.9143C29.4247 22.5778 28.4324 22.2432 27.404 21.9627C27.0271 23.3627 26.3271 24.6551 25.4117 25.7858C24.0655 27.4551 22.2348 28.5858 20.1886 29.0704C17.9271 29.6089 15.5579 29.5012 13.404 28.6935C11.8425 28.1012 10.3886 27.1858 9.25785 25.8935C7.80401 24.2781 6.88862 22.232 6.5117 20.0781C5.84559 20.0781 5.1855 20.0721 4.52741 20.0661Z" fill="#ABAFC7"/>
<path fill-rule="evenodd" clip-rule="evenodd" d="M85.9886 12.7553C89.9194 9.52449 96.004 9.57833 100.042 12.6476C103.435 15.3399 104.35 19.9706 104.027 24.0629C100.256 24.0989 96.4607 24.0869 92.6735 24.0749C90.7829 24.0689 88.8944 24.0629 87.0117 24.0629C87.281 26.3245 88.5194 28.6399 90.7271 29.5014C93.904 31.0629 98.104 29.5553 99.2348 26.1091C99.5351 26.2023 99.8333 26.2955 100.13 26.3883L100.131 26.3883L100.131 26.3884C101.378 26.7782 102.604 27.1612 103.866 27.5091C103.004 29.8783 101.442 32.086 99.181 33.3245C94.7656 35.8553 88.6271 35.1014 85.0194 31.4399C80.0656 26.486 80.4425 17.1706 85.9886 12.7553ZM49.9656 11.14C45.4963 9.25537 39.8963 11.14 37.3656 15.2323C34.0271 20.4554 34.6733 28.2092 39.4656 32.4092C43.3425 35.7477 50.504 35.9092 53.2502 31.0092C53.2771 31.5477 53.304 32.0727 53.331 32.5977C53.3579 33.1227 53.3848 33.6477 53.4117 34.1861H58.6886C58.4145 29.2861 58.4457 24.3861 58.4768 19.4862C58.4946 16.6861 58.5124 13.8861 58.4733 11.0861H53.0886C53.0886 12.1092 53.0886 13.0784 53.1425 14.0477C52.3348 12.8092 51.3656 11.6784 49.9656 11.14ZM41.9963 27.132C39.7348 23.255 40.5963 16.5781 45.5502 15.3396C48.1348 14.6935 51.1502 15.8781 52.281 18.355C53.7348 21.532 53.5194 25.732 51.0425 28.3166C48.5656 30.955 43.7194 30.3089 41.9963 27.132ZM87.2332 19.6374C87.514 18.6711 87.8076 17.6609 88.5194 16.9016C90.4579 14.5862 94.281 14.3708 96.5964 16.0939C97.8348 17.0093 98.2656 18.517 98.6425 19.917C95.7735 20.0786 92.8742 20.0583 89.9901 20.0381H89.99H89.9898H89.9897H89.9896C89.0306 20.0314 88.0734 20.0247 87.1194 20.0247C87.1578 19.8969 87.1954 19.7676 87.2332 19.6374ZM112.266 12.5399C115.981 9.68603 121.419 9.68603 125.35 12.1091C129.227 14.6399 130.519 19.7014 129.981 24.0629C126.212 24.0271 122.442 24.039 118.673 24.051L118.672 24.051C116.788 24.057 114.904 24.0629 113.019 24.0629C113.289 25.4091 113.612 26.8091 114.527 27.8322C116.573 30.3629 120.666 30.8476 123.25 28.9091C123.872 28.4603 124.272 27.8121 124.663 27.1777C124.883 26.8227 125.099 26.4721 125.35 26.1629C126.481 26.4456 127.612 26.8192 128.742 27.1928C129.119 27.3173 129.496 27.4418 129.873 27.5629C129.012 29.986 127.396 32.1937 125.081 33.4322C120.719 35.8014 114.796 35.1553 111.242 31.6553C105.966 26.6476 106.396 16.9014 112.266 12.5399ZM113.179 19.6676C113.461 18.702 113.748 17.722 114.419 16.9551C116.412 14.4782 120.45 14.3167 122.766 16.2551C123.896 17.2244 124.273 18.6782 124.542 20.0244H113.073C113.109 19.906 113.144 19.7869 113.179 19.6676ZM140.535 13.886C143.604 9.14756 151.735 9.20141 154.319 14.3706C156.796 10.1168 162.989 9.14756 166.866 12.0014C168.966 13.6168 169.935 16.3091 169.935 18.8937C169.971 22.267 169.959 25.6403 169.947 29.0136V29.0168C169.941 30.704 169.935 32.3912 169.935 34.0783H164.604V20.4553C164.604 19.0553 164.389 17.5476 163.419 16.5245C161.373 14.4783 157.442 15.0168 156.096 17.6014C155.396 18.786 155.396 20.2399 155.396 21.5322V34.0783H150.012C149.989 31.9781 149.995 29.8779 150.002 27.7818V27.7798V27.7797C150.011 24.9863 150.019 22.2005 149.958 19.4322C149.958 17.2783 148.181 15.286 145.973 15.3399C143.389 14.9629 140.966 17.0629 140.804 19.5937C140.707 22.5033 140.727 25.413 140.746 28.3109V28.3116C140.759 30.2402 140.772 32.1635 140.75 34.0783H135.312V10.9783H140.589C140.589 12.0014 140.589 12.9706 140.535 13.886ZM70.8579 11.0324H65.4733V34.1324H70.9656C70.9925 32.2209 70.9925 30.3093 70.9925 28.3978C70.9925 26.4863 70.9925 24.5747 71.0194 22.6632C71.0733 20.7247 71.6656 18.517 73.3887 17.3863C74.8424 16.3201 76.6888 16.3879 78.4173 16.4514C78.6095 16.4585 78.8001 16.4655 78.9887 16.4709V10.817C75.8117 10.3863 72.3117 11.6247 70.804 14.6401C70.804 14.0478 70.8175 13.442 70.831 12.8363C70.8444 12.2305 70.8579 11.6247 70.8579 11.0324Z" fill="#ABAFC7"/>
</svg>
