<svg width="60" height="49" viewBox="0 0 60 49" fill="none" xmlns="http://www.w3.org/2000/svg">
<path fill-rule="evenodd" clip-rule="evenodd" d="M3.69501 48.3535C1.23167 41.3154 0 34.3359 0 27.4151C0 19.4386 2.11144 13.0163 6.33431 8.14824C10.5572 3.2802 16.7155 0.846191 24.8094 0.846191V11.9312C18.5924 11.9313 15.4839 15.9195 15.4839 23.896V26.5353H26.7449V48.3535H3.69501ZM36.9502 48.3535C34.6041 41.1981 33.4311 34.2186 33.4311 27.4151C33.4311 19.4386 35.5132 13.0163 39.6774 8.14824C43.8417 3.2802 49.9707 0.846191 58.0645 0.846191V11.9312C51.9648 11.9313 48.915 15.9195 48.915 23.896V26.5353H60V48.3535H36.9502Z" fill="white"/>
</svg>
