<svg width="126" height="35" viewBox="0 0 126 35" fill="none" xmlns="http://www.w3.org/2000/svg">
<path fill-rule="evenodd" clip-rule="evenodd" d="M121.017 26.2236C118.894 26.2236 117.018 27.8204 117.018 30.1825C117.018 32.54 118.894 34.1383 121.017 34.1383C123.147 34.1383 125.019 32.54 125.019 30.1825C125.019 27.8204 123.146 26.2236 121.017 26.2236ZM121.02 26.8614C122.893 26.8614 124.252 28.2653 124.252 30.1825C124.252 32.0943 122.893 33.4982 121.02 33.4982C119.15 33.4982 117.789 32.0966 117.789 30.1825C117.789 28.2653 119.15 26.8614 121.02 26.8614ZM120.171 32.5221V30.3529L120.175 30.3544V30.3521H120.855C121.319 30.3521 121.536 30.4999 121.659 30.9051C121.723 31.1363 121.756 31.387 121.788 31.6335C121.83 31.9549 121.871 32.2692 121.981 32.5236H122.81C122.678 32.3733 122.597 31.7999 122.536 31.3707C122.527 31.3027 122.517 31.2382 122.509 31.1796C122.425 30.5193 122.277 30.1584 121.872 30.0939V30.0736C122.338 30.0122 122.7 29.5883 122.7 29.0532C122.7 28.1844 122.232 27.7387 121.211 27.7387H119.47V32.5221H120.171ZM121.039 29.7348C121.72 29.7348 121.914 29.3723 121.914 29.0526C121.914 28.6746 121.72 28.376 121.039 28.376H120.171V29.7363H121.039V29.7348Z" fill="#ABAFC7"/>
<path fill-rule="evenodd" clip-rule="evenodd" d="M65.9036 0.180664V33.4486H84.3665V26.0146H73.7241V19.4657H84.3665L84.3665 12.3306L93.7636 22.8912L84.3665 33.4488H93.9813L98.5508 28.2789L103.161 33.4488H113.117L103.637 22.8469L112.987 12.3306H103.419L98.9381 17.4608L94.2816 12.3306H84.3665L84.3665 12.3303H73.7241V7.596H84.3665V0.180664H65.9036Z" fill="#ABAFC7"/>
<path fill-rule="evenodd" clip-rule="evenodd" d="M58.1118 0.182129V13.7956H58.0254C56.3011 11.8138 54.1459 11.1231 51.6469 11.1231C46.526 11.1231 42.6682 14.6068 41.3141 19.2089C39.7694 14.137 35.7864 11.0282 29.8816 11.0282C25.085 11.0282 21.2988 13.1804 19.3209 16.6881V12.3295H9.40811V7.59668H20.227V0.182129H0.571777V33.4485H9.40811V19.4656H18.2157C17.9444 20.5408 17.8088 21.6458 17.812 22.7548C17.812 29.691 23.1126 34.5653 29.88 34.5653C35.5687 34.5653 39.3207 31.8921 41.3032 27.0256H33.73C32.7064 28.4901 31.9287 28.9226 29.8808 28.9226C27.507 28.9226 25.4583 26.8506 25.4583 24.3975H40.8786C41.5474 29.908 45.8408 34.6595 51.7332 34.6595C54.275 34.6595 56.6021 33.4096 58.0247 31.2979H58.1102V33.4531H65.9012V0.182129H58.1118ZM25.7041 19.5651C26.1964 17.4511 27.8352 16.0698 29.8808 16.0698C32.1332 16.0698 33.6888 17.4084 34.0971 19.5651H25.7041ZM48.7287 22.9173C48.7287 25.7111 50.5129 28.3859 53.3837 28.3859C56.5274 28.3859 57.8854 25.7469 57.8854 22.9173C57.8854 19.9322 56.6029 17.0615 53.3837 17.0615C50.2811 17.0615 48.7287 19.9307 48.7287 22.9173Z" fill="#ABAFC7"/>
</svg>
