<svg width="122" height="35" viewBox="0 0 122 35" fill="none" xmlns="http://www.w3.org/2000/svg">
<path fill-rule="evenodd" clip-rule="evenodd" d="M5.16685 6.52393H0.95874V29.4733H5.16685V19.9278H14.042V29.4733H18.2555V6.52393H14.042V15.8731H5.16685V6.52393ZM28.101 25.4826C30.0216 25.4826 31.5868 23.9193 31.5868 21.9982V12.1177H35.5762V21.9982C35.5762 26.1203 32.2223 29.4732 28.101 29.4732C23.9787 29.4732 20.6246 26.1203 20.6246 21.9982V12.1177H24.6153V21.9982C24.6153 23.9193 26.1796 25.4826 28.101 25.4826ZM46.7169 12.2336C44.7373 12.2336 43.3555 12.808 42.021 14.1179V6.52393H38.0173V20.5977C38.0173 25.8656 41.8261 29.4733 46.1052 29.4733C50.8623 29.4733 55.0303 25.8013 55.0303 20.8537C55.0303 15.9688 51.1869 12.2336 46.7169 12.2336ZM42.0288 20.8539C42.0288 23.5039 44.1034 25.7697 46.8163 25.7697C49.1151 25.7697 51.1908 23.5039 51.1908 20.8539C51.1908 18.2035 49.1151 15.937 46.8163 15.937C44.1034 15.937 42.0288 18.2035 42.0288 20.8539ZM61.7547 13.2425C61.7547 11.2299 63.0958 10.5918 64.5638 10.5918C65.7458 10.5918 67.3098 11.4856 68.3304 12.5714L70.9477 9.50675C69.6396 7.75109 66.9904 6.5376 64.8194 6.5376C60.4771 6.5376 57.3484 9.05982 57.3484 13.2425C57.3484 17.6799 60.4718 18.7745 63.1454 19.7114C65.1458 20.4125 66.8944 21.0252 66.8944 22.884C66.8944 24.2233 65.5859 25.4057 64.0863 25.4057C61.9394 25.4057 61.1102 24.4573 60.163 23.3739C60.0675 23.2647 59.9707 23.154 59.8713 23.0429L56.9656 26.0434C58.8184 28.3103 61.1162 29.4601 63.8621 29.4601C67.9802 29.4601 71.3005 26.9061 71.3005 22.9149C71.3005 17.717 67.8292 16.629 65.0732 15.7652C63.259 15.1966 61.7547 14.7251 61.7547 13.2425ZM73.7528 20.8834C73.7528 15.6143 77.562 12.0087 81.8406 12.0087C86.5968 12.0087 90.766 15.6798 90.766 20.6281C90.766 25.513 86.9221 29.2478 82.4523 29.2478C80.472 29.2478 79.0909 28.6724 77.7563 27.3634V34.9935H73.7528V20.8834ZM82.552 25.5453C79.8393 25.5453 77.7645 23.2765 77.7645 20.6284C77.7645 17.9779 79.8393 15.7114 82.552 15.7114C84.8503 15.7114 86.9263 17.9779 86.9263 20.6284C86.9263 23.2765 84.8503 25.5453 82.552 25.5453ZM117.204 23.1835C117.204 24.7485 117.875 25.7696 120.236 25.7696C120.685 25.7696 121.195 25.7378 121.642 25.7069L120.652 29.346C120.269 29.4405 119.566 29.4735 119.055 29.4735C115.64 29.4735 113.151 27.6535 113.151 24.0456V9.93454L117.204 8.11523V12.7448H120.875V16.2561H117.204V23.1835Z" fill="#ABAFC7"/>
<path fill-rule="evenodd" clip-rule="evenodd" d="M106.481 13.2841C107.831 14.0811 108.91 15.1397 109.678 16.4602C110.432 17.7711 110.791 19.2019 110.791 20.7527V20.8315C110.791 22.408 110.345 23.8409 109.534 25.1379C108.728 26.4313 107.661 27.4444 106.298 28.1853C105.004 28.8863 103.627 29.2291 102.168 29.2291H101.927C100.607 29.2291 99.4007 28.9412 98.3082 28.4689C97.7542 28.2296 97.2389 27.9521 96.7618 27.6226L93.2819 31.103C93.3639 31.3647 93.4075 31.64 93.4075 31.9222C93.4093 32.6463 93.1216 33.3411 92.6084 33.852C92.0975 34.3658 91.4022 34.6539 90.6776 34.6521C89.9532 34.654 89.2581 34.3659 88.7475 33.852C88.2318 33.3365 87.9477 32.6513 87.9475 31.9222C87.945 31.1978 88.2326 30.5026 88.7461 29.9916C89.496 29.2377 90.6174 28.9918 91.6139 29.3627L94.9807 25.9876C94.4237 25.3005 93.9739 24.5405 93.6663 23.7047C93.317 22.7474 93.1119 21.7284 93.1119 20.649V20.3282C93.1119 18.7906 93.6067 17.381 94.4164 16.0998C94.8159 15.4714 95.3154 14.9113 95.8517 14.4189L85.7072 7.10961L84.9689 6.54954C84.4376 6.86965 83.8219 7.06435 83.1562 7.06435C81.2047 7.06435 79.6239 5.48266 79.6239 3.53206C79.6239 1.58122 81.203 0 83.1545 0C85.1061 0 86.6859 1.58122 86.6859 3.53206C86.6859 3.85735 86.622 4.16568 86.539 4.46481C89.2128 6.49322 93.3363 9.62565 95.9459 11.608C96.7507 12.2194 97.4115 12.7214 97.8414 13.0479C98.7344 12.5963 99.7121 12.3023 100.655 12.1661V7.96835C99.4764 7.46791 98.7872 6.36025 98.7872 5.06802C98.7872 3.30671 100.224 1.87941 101.986 1.87941C103.746 1.87941 105.158 3.30671 105.158 5.06802C105.158 6.36025 104.427 7.46791 103.248 7.96835V12.1642C104.427 12.3243 105.472 12.6969 106.481 13.2841ZM102.168 25.4577C103.396 25.4577 104.482 24.8111 105.426 23.7614C106.248 22.857 106.66 21.8606 106.66 20.7847C106.66 20.6235 106.653 20.4547 106.64 20.29C106.558 19.4972 106.301 18.7695 105.87 18.0949C105.426 17.4205 104.853 16.9078 104.153 16.5325C103.465 16.1806 102.736 16.0288 101.966 16.0288H101.887C101.038 16.0288 100.276 16.2596 99.562 16.7301C98.835 17.2039 98.2884 17.7998 97.8836 18.5661C97.5051 19.2672 97.3549 20.0094 97.3549 20.7923V21.0341C97.3549 21.8304 97.6189 22.5814 98.1055 23.2692C98.5762 23.97 99.1514 24.5235 99.908 24.9115C100.579 25.2639 101.265 25.4577 101.966 25.4577H102.168Z" fill="#ABAFC7"/>
</svg>
