<svg width="24" height="24" viewBox="0 0 24 24" fill="none" xmlns="http://www.w3.org/2000/svg">
<path fill-rule="evenodd" clip-rule="evenodd" d="M11.9999 0.000488281C5.38329 0.000488281 0 5.38239 0 12.0004C0 18.6172 5.38329 23.9998 11.9999 23.9998C18.6166 23.9998 24 18.6172 24 12.0004C24 5.38239 18.6166 0.000488281 11.9999 0.000488281ZM18.6899 7.99851L11.3053 16.3062C11.1235 16.5101 10.8701 16.6153 10.6148 16.6153C10.4123 16.6153 10.2088 16.5488 10.0385 16.414L5.42298 12.7211C5.02512 12.403 4.96059 11.8217 5.27904 11.423C5.5971 11.0256 6.17855 10.9605 6.5764 11.2792L10.5073 14.4237L17.3099 6.77142C17.6478 6.38949 18.2321 6.35529 18.6129 6.69466C18.9941 7.03337 19.0287 7.61658 18.6899 7.99851Z" fill="#4C40F7"/>
</svg>
