<svg width="16" height="17" viewBox="0 0 16 17" fill="none" xmlns="http://www.w3.org/2000/svg">
<path d="M7.99932 5.74805C7.18175 5.74805 6.39766 6.07283 5.81955 6.65094C5.24144 7.22905 4.91666 8.01314 4.91666 8.83071C4.91666 9.64829 5.24144 10.4324 5.81955 11.0105C6.39766 11.5886 7.18175 11.9134 7.99932 11.9134C8.8169 11.9134 9.60099 11.5886 10.1791 11.0105C10.7572 10.4324 11.082 9.64829 11.082 8.83071C11.082 8.01314 10.7572 7.22905 10.1791 6.65094C9.60099 6.07283 8.8169 5.74805 7.99932 5.74805ZM7.99932 10.8327C7.46818 10.8327 6.9588 10.6217 6.58322 10.2461C6.20765 9.87057 5.99666 9.36119 5.99666 8.83005C5.99666 8.29891 6.20765 7.78952 6.58322 7.41395C6.9588 7.03838 7.46818 6.82738 7.99932 6.82738C8.53046 6.82738 9.03985 7.03838 9.41542 7.41395C9.791 7.78952 10.002 8.29891 10.002 8.83005C10.002 9.36119 9.791 9.87057 9.41542 10.2461C9.03985 10.6217 8.53046 10.8327 7.99932 10.8327Z" fill="white"/>
<path d="M11.204 6.35335C11.6009 6.35335 11.9227 6.03159 11.9227 5.63468C11.9227 5.23777 11.6009 4.91602 11.204 4.91602C10.8071 4.91602 10.4853 5.23777 10.4853 5.63468C10.4853 6.03159 10.8071 6.35335 11.204 6.35335Z" fill="white"/>
<path d="M13.6887 4.90367C13.5343 4.50513 13.2985 4.1432 12.9962 3.84105C12.694 3.5389 12.3319 3.30319 11.9333 3.14901C11.4669 2.97391 10.9741 2.87924 10.476 2.86901C9.83401 2.84101 9.63068 2.83301 8.00268 2.83301C6.37468 2.83301 6.16601 2.83301 5.52934 2.86901C5.0316 2.87871 4.53918 2.97341 4.07334 3.14901C3.67463 3.30301 3.31252 3.53865 3.01023 3.84083C2.70795 4.143 2.47216 4.50502 2.31801 4.90367C2.14288 5.37008 2.04842 5.8629 2.03868 6.36101C2.01001 7.00234 2.00134 7.20567 2.00134 8.83434C2.00134 10.4623 2.00134 10.6697 2.03868 11.3077C2.04868 11.8063 2.14268 12.2983 2.31801 12.7657C2.47259 13.1642 2.70861 13.5261 3.01097 13.8282C3.31333 14.1303 3.67539 14.3661 4.07401 14.5203C4.53897 14.7025 5.03159 14.8039 5.53068 14.8203C6.17268 14.8483 6.37601 14.857 8.00401 14.857C9.63201 14.857 9.84068 14.857 10.4773 14.8203C10.9754 14.8102 11.4682 14.7158 11.9347 14.541C12.3332 14.3865 12.6951 14.1506 12.9973 13.8483C13.2996 13.5461 13.5355 13.1842 13.69 12.7857C13.8653 12.319 13.9593 11.827 13.9693 11.3283C13.998 10.687 14.0067 10.4837 14.0067 8.85501C14.0067 7.22634 14.0067 7.01967 13.9693 6.38167C13.9616 5.87652 13.8666 5.37651 13.6887 4.90367ZM12.8767 11.2583C12.8724 11.6425 12.8023 12.0232 12.6693 12.3837C12.5692 12.6429 12.416 12.8783 12.2194 13.0748C12.0228 13.2712 11.7873 13.4244 11.528 13.5243C11.1715 13.6566 10.7949 13.7268 10.4147 13.7317C9.78134 13.761 9.60268 13.7683 7.97868 13.7683C6.35334 13.7683 6.18734 13.7683 5.54201 13.7317C5.16196 13.727 4.78556 13.6569 4.42934 13.5243C4.16913 13.425 3.93268 13.2721 3.73527 13.0756C3.53786 12.8792 3.3839 12.6434 3.28334 12.3837C3.15231 12.027 3.08222 11.6509 3.07601 11.271C3.04734 10.6377 3.04068 10.459 3.04068 8.83501C3.04068 7.21034 3.04068 7.04434 3.07601 6.39834C3.08032 6.01436 3.15045 5.63395 3.28334 5.27367C3.48668 4.74767 3.90334 4.33367 4.42934 4.13234C4.78574 4.00043 5.16203 3.93032 5.54201 3.92501C6.17601 3.89634 6.35401 3.88834 7.97868 3.88834C9.60334 3.88834 9.77001 3.88834 10.4147 3.92501C10.7949 3.92958 11.1716 3.99972 11.528 4.13234C11.7873 4.23252 12.0228 4.38581 12.2193 4.58236C12.4159 4.77891 12.5692 5.01439 12.6693 5.27367C12.8004 5.63031 12.8705 6.00645 12.8767 6.38634C12.9053 7.02034 12.9127 7.19834 12.9127 8.82301C12.9127 10.447 12.9127 10.6217 12.884 11.259H12.8767V11.2583Z" fill="white"/>
</svg>
