<svg width="155" height="35" viewBox="0 0 155 35" fill="none" xmlns="http://www.w3.org/2000/svg">
<path d="M147.951 2.60742L154.408 2.64299C154.408 2.64299 142.404 18.9082 141.424 20.2338C141.106 20.663 140.622 21.1259 140.377 21.6998C139.757 23.1424 139.121 26.3068 139.121 26.3068L133.213 26.3364C133.213 26.3364 134.133 23.0378 134.095 21.2809C134.061 19.7461 133.278 18.2131 132.838 16.6738C132.394 15.1156 131.791 12.0665 131.791 12.0665H137.864L138.702 15.4173L147.951 2.60742" fill="#ABAFC7"/>
<path fill-rule="evenodd" clip-rule="evenodd" d="M70.5869 19.4228C72.0604 15.6933 73.6696 11.6202 73.1552 7.87845C72.8327 5.53711 71.3061 2.99292 69.6306 1.92684C69.5993 1.90779 69.5203 1.84803 69.4353 1.78379L69.435 1.78357L69.4349 1.78352L69.4348 1.78344L69.4347 1.78333C69.3329 1.70645 69.2229 1.62328 69.1763 1.59589C67.9364 0.877638 65.9513 0.272411 64.569 0.130146C57.4428 -0.600769 53.1918 2.56552 50.7479 6.83105C49.7865 8.50658 49.1502 10.3367 48.6538 12.2763C48.1049 14.4244 47.7113 17.0298 48.0253 19.3962C48.214 20.8137 48.9932 22.8286 50.1198 24.0035C52.603 26.5916 57.2218 26.5598 62.3339 26.5246C62.9335 26.5205 63.5399 26.5163 64.1504 26.5163C65.9326 26.5163 70.2066 26.4808 71.4963 26.4473C71.9131 26.4346 73.1091 21.5678 73.0024 21.4108C72.9556 21.3554 72.6328 21.3607 72.1409 21.3688C71.5564 21.3784 70.7331 21.3919 69.8506 21.3122C70.0844 20.6948 70.3337 20.0639 70.5869 19.4228ZM115.509 9.57041C116.202 12.0712 114.881 17.9471 114.881 17.9471C114.881 17.9471 107.981 17.832 104.201 17.9471C103.943 17.955 103.673 17.9533 103.407 17.9515C102.459 17.9454 101.542 17.9394 101.269 18.3661C100.777 19.1323 101.449 20.3117 102.019 20.8099C102.595 21.3139 103.65 21.4255 104.21 21.4847C104.287 21.4929 104.355 21.5 104.41 21.5071C107.478 21.8968 113.899 21.6078 113.899 21.6078L112.786 26.5328C112.786 26.5328 103.713 26.9879 99.1749 25.9046C98.2788 25.6912 97.4388 25.2599 96.8712 24.6484C96.7703 24.5394 96.6782 24.4047 96.5857 24.2695L96.5856 24.2694C96.5361 24.197 96.4865 24.1245 96.4354 24.0558C96.3184 23.8985 95.9772 23.3815 95.8241 22.9728C94.7876 20.2107 95.9456 14.9192 97.0807 12.0836L97.099 12.0379L97.0991 12.0376C97.2277 11.7167 97.3859 11.3218 97.5521 10.984C97.6361 10.8136 97.715 10.6348 97.7904 10.4642C97.9103 10.1927 98.021 9.94205 98.1278 9.77989C98.1913 9.681 98.2631 9.60123 98.3349 9.52145L98.335 9.52134C98.3954 9.45429 98.4557 9.38722 98.5112 9.30879C98.6513 9.10564 98.8144 8.90882 98.9654 8.7331C99.3601 8.27531 99.8049 7.94382 100.333 7.55005L100.431 7.47683C102.322 6.06082 105.744 4.96158 109.855 5.38235C111.403 5.54149 113.74 6.09427 114.881 7.68601C115.116 8.01321 115.26 8.58877 115.392 9.11733L115.392 9.11739C115.431 9.27532 115.47 9.42906 115.509 9.57071V9.57041ZM137.649 10.7184C137.649 10.7184 136.917 6.75613 135.726 6.03787C134.731 5.43877 132.683 5.49743 130.592 5.55734C129.956 5.57556 129.316 5.5939 128.7 5.5939H124.61C124.264 5.5939 123.936 5.59078 123.628 5.58786L123.628 5.58786C121.661 5.56918 120.498 5.55812 120.273 6.41282C119.473 9.46609 116.085 26.307 116.085 26.307H121.53L125.09 10.8104H128.022C131.414 10.8104 137.649 10.7184 137.649 10.7184ZM109.803 11.4384C110.548 12.5904 110.379 13.585 110.379 13.585L102.264 13.5326C102.264 13.5326 102.172 10.0269 106.902 10.1755C108.578 10.2279 109.166 10.4564 109.803 11.4384ZM95.816 5.54344L90.5365 5.57448L86.7671 21.2809C86.7671 21.2809 84.6814 21.2959 84.0445 21.2809C82.0344 21.2347 81.3746 21.1678 80.9035 20.2335C80.5179 19.4704 80.719 18.5452 80.9358 17.5474C80.998 17.2615 81.0614 16.9696 81.1127 16.6738C81.7559 12.9671 83.3015 5.54344 83.3015 5.54344L77.8316 5.59347C77.8316 5.59347 76.7905 10.3617 76.2962 12.6946C76.1971 13.1617 76.0822 13.66 75.9623 14.1797C75.2362 17.3279 74.329 21.2613 75.6681 23.7937C77.0652 26.4335 80.1012 26.3834 83.6568 26.3248H83.6569H83.6571H83.6572H83.6573C84.1946 26.3159 84.7437 26.3068 85.3008 26.3068H91.3742C92.8737 19.5007 95.816 5.54344 95.816 5.54344ZM65.8256 15.6266C65.9376 15.2285 66.0601 14.8236 66.1832 14.4163C66.6678 12.8141 67.1638 11.1741 67.0821 9.76301C66.9712 7.87017 65.384 6.14672 64.3598 5.78442C61.2752 4.69544 58.3874 6.21785 57.2396 7.45965C55.7549 9.06796 55.2522 10.9466 54.7265 13.533C54.3353 15.453 54.0146 17.48 54.7265 18.9774C55.7845 21.1993 58.7239 21.149 62.1437 21.0905C62.7982 21.0793 63.4704 21.0678 64.1503 21.0718C64.7292 19.5201 65.2157 17.7922 65.7016 16.0665L65.8256 15.6266ZM47.4243 5.5998C47.2844 6.23695 47.1445 6.90795 47.0034 7.58468C46.7898 8.60945 46.5734 9.64737 46.3501 10.6008H40.4865C40.6668 9.90423 40.8303 9.20932 40.9904 8.529L40.9904 8.52894L40.9905 8.5289C41.2337 7.49531 41.469 6.49542 41.7431 5.57478C42.6592 5.57478 43.544 5.58075 44.4494 5.58685C45.3984 5.59325 46.3701 5.5998 47.4246 5.5998H47.4243ZM45.9314 12.0668H40.277C39.9904 13.009 38.474 19.35 37.9737 21.6998C37.8617 22.2265 37.7623 22.7559 37.6644 23.2771C37.0066 26.7803 36.4173 29.9185 32.529 29.4478C32.3309 30.176 32.1081 31.0189 31.8782 31.8882C31.6122 32.8943 31.3368 33.9359 31.0796 34.8762C31.5712 34.8863 32.0522 34.9038 32.5218 34.9209C33.8026 34.9675 34.9979 35.011 36.089 34.8928C37.0058 34.7927 38.6624 34.3966 39.0205 34.0551C39.0947 33.9843 39.1573 33.9669 39.2242 33.9483C39.2876 33.9306 39.3548 33.912 39.4394 33.8457C41.3301 32.3687 41.8353 30.3428 42.5227 27.5863C42.5419 27.5094 42.5612 27.432 42.5807 27.3539C43.7282 22.7593 45.1921 16.1587 45.9314 12.0668Z" fill="#ABAFC7"/>
<path d="M27.0838 22.7472L26.9626 23.0613C24.898 27.082 21.2392 29.5488 16.0206 29.6576C13.581 29.7079 11.2566 29.0819 9.73807 28.4013C6.46116 26.9289 3.70478 24.1985 2.19955 21.2811C0.0402573 17.0991 -0.349162 11.2816 4.14061 6.93652C4.20994 6.93652 3.59597 7.87873 3.66529 7.87873L3.54172 8.2808C0.306401 18.4099 10.2743 27.0905 19.9639 26.0976C22.2926 25.8589 25.2621 24.5837 27.0838 22.7472Z" fill="#ABAFC7"/>
<path d="M21.2203 18.5588C23.6581 18.5753 26.2044 17.436 27.7123 15.8364C26.393 19.1851 22.5733 21.3375 17.4512 20.653C13.1621 20.0791 9.07653 15.7632 8.65577 11.4386C8.34803 8.2913 9.44485 6.41292 11.2524 4.13428C10.6243 5.32605 10.3895 6.24504 10.331 6.83128C9.64439 13.6395 15.7696 18.5229 21.2203 18.5588Z" fill="#ABAFC7"/>
<path d="M27.4672 10.1023C27.0883 10.9715 24.9064 12.613 23.9428 12.8183C20.1273 13.6312 17.6838 11.8218 16.4037 9.76289C16.2135 9.45545 15.8618 8.61573 15.7988 8.40203C15.3024 6.71414 15.5305 4.16122 17.0114 2.83984C16.5653 4.09641 16.5002 5.55583 16.735 6.50467C16.8772 7.07825 17.3107 8.07982 17.7444 8.70977C18.5335 9.85723 19.0341 10.136 20.0477 10.7455C20.5044 11.0198 20.9942 11.2398 21.2057 11.3001C22.1669 11.5831 24.1963 12.3285 27.4675 10.1023" fill="#ABAFC7"/>
</svg>
