<svg width="16" height="17" viewBox="0 0 16 17" fill="none" xmlns="http://www.w3.org/2000/svg">
<path d="M3.32201 5.62827C4.12761 5.62827 4.78068 4.9752 4.78068 4.1696C4.78068 3.364 4.12761 2.71094 3.32201 2.71094C2.51641 2.71094 1.86334 3.364 1.86334 4.1696C1.86334 4.9752 2.51641 5.62827 3.32201 5.62827Z" fill="white"/>
<path d="M6.15799 6.7332V14.8259H8.67066V10.8239C8.67066 9.76787 8.86932 8.7452 10.1787 8.7452C11.47 8.7452 11.486 9.95254 11.486 10.8905V14.8265H14V10.3885C14 8.20854 13.5307 6.5332 10.9827 6.5332C9.75932 6.5332 8.93932 7.20454 8.60399 7.83987H8.56999V6.7332H6.15799ZM2.06332 6.7332H4.57999V14.8259H2.06332V6.7332Z" fill="white"/>
</svg>
