<svg width="190" height="35" viewBox="0 0 190 35" fill="none" xmlns="http://www.w3.org/2000/svg">
<path fill-rule="evenodd" clip-rule="evenodd" d="M14.0845 26.123C23.5468 26.123 29.5295 21.2481 29.5295 12.7559C29.529 3.42458 23.1287 0.0834961 12.6931 0.0834961C8.65718 0.0834961 3.78697 0.361131 0.309204 0.778766V34.0619H10.4658V26.123H14.0845ZM19.5128 12.8937C19.5128 17.2115 17.4247 20.1359 12.1363 20.1359H10.4653V6.38466C11.0594 6.35107 11.6142 6.35107 12.1363 6.35107C17.1437 6.3506 19.5128 8.71736 19.5128 12.8937ZM142.792 20.1359C148.082 20.1359 150.167 17.2115 150.167 12.8937C150.167 8.71736 147.8 6.3506 142.792 6.35107C142.272 6.35107 141.716 6.35107 141.127 6.38466V20.1359H142.792ZM144.745 26.123C154.2 26.123 160.186 21.2481 160.186 12.7559C160.186 3.42458 153.787 0.0834961 143.35 0.0834961C139.315 0.0834961 134.442 0.361131 130.964 0.778766V34.0619H141.126V26.123H144.745ZM178.133 6.6266C175.214 6.6266 173.403 7.46329 173.403 9.27289C173.403 11.4324 176.068 12.3632 179.223 13.4652C183.8 15.0637 189.408 17.0224 189.408 23.6144C189.408 31.9709 182.449 34.7567 173.964 34.7567C170.623 34.7567 166.449 34.2014 163.39 33.0876L162.274 25.4263C165.335 26.9573 170.487 28.0707 173.821 28.0707C177.58 28.0707 179.113 26.9573 179.113 24.8706C179.113 22.6697 176.507 21.7492 173.408 20.6544C168.859 19.0479 163.248 17.0658 163.248 10.111C163.248 3.32242 168.812 0.0834961 177.022 0.0834961C181.334 0.0834961 183.7 0.501131 186.345 1.05829L187.179 8.30187C184.815 7.32329 181.334 6.6266 178.133 6.6266ZM123.314 0.778766H113.157V34.0619H123.314V0.778766ZM71.9684 0.778766H82.126V34.0619H71.9684V0.778766ZM99.7972 27.3755V0.778766H89.6396V34.0619H108.008L109.538 27.3755H99.7972ZM54.2977 0.778766H64.4552L64.4547 34.0619H54.2972V20.9705H43.722V34.0619H33.563V0.778766H43.7224V14.0078H54.2977V0.778766Z" fill="#ABAFC7"/>
</svg>
