<svg width="161" height="35" viewBox="0 0 161 35" fill="none" xmlns="http://www.w3.org/2000/svg">
<path fill-rule="evenodd" clip-rule="evenodd" d="M32.8029 34.3895H22.9867V16.6445H32.8029V34.3895ZM158.144 34.3895H148.327V16.6445H158.144V34.3895Z" fill="#ABAFC7"/>
<path fill-rule="evenodd" clip-rule="evenodd" d="M0.351929 0.451534H153.764C156.038 0.41424 158.155 1.60609 159.303 3.56947C160.451 5.53284 160.45 7.96259 159.302 9.92582C158.154 11.889 156.037 13.0806 153.763 13.043L17.3414 13.0396V34.3093H0.351929V0.451534ZM17.3423 8.74995H134.918C135.644 8.76492 136.32 8.3866 136.687 7.76095C137.054 7.13529 137.054 6.3601 136.687 5.73444C136.32 5.10878 135.644 4.73046 134.918 4.74544L17.3423 4.73434V8.74995Z" fill="#ABAFC7"/>
<path fill-rule="evenodd" clip-rule="evenodd" d="M63.5696 28.0204C65.5749 27.1121 66.8434 25.0923 66.8434 22.7482C66.8434 19.5538 64.3311 16.6445 60.0517 16.6445H39.8533V34.3895H49.6695V28.664H52.8792L55.8363 34.3895H66.8477L63.5696 28.0204ZM55.2703 24.3659H49.6695V20.6098L55.2703 20.6286C56.3024 20.6286 57.139 21.4652 57.139 22.4972C57.139 23.5292 56.3024 24.3659 55.2703 24.3659ZM94.6513 34.3895H73.0042V16.6445H94.6513V20.9239H82.8196V23.5353H94.6513V27.8138H82.8196V30.4251H94.6513V34.3895ZM111.159 16.6445H101.342V34.3895H121.101V30.4251H111.159V16.6445ZM124.479 16.6445H134.294V30.4251H144.237V34.3895H124.479V16.6445Z" fill="#ABAFC7"/>
</svg>
