<svg width="120" height="16" viewBox="0 0 120 16" fill="none" xmlns="http://www.w3.org/2000/svg">
<path d="M16.017 6.30381C15.9643 6.14251 15.8261 6.02729 15.6582 6.00096L10.6545 5.2899L8.40278 0.763496C8.32707 0.612067 8.17235 0.516602 8.00446 0.516602C7.83657 0.516602 7.68185 0.612067 7.60613 0.766788L5.38408 5.30636L0.380347 6.05034C0.212459 6.07667 0.0741979 6.19189 0.0215271 6.35319C-0.0311438 6.5145 0.0149432 6.69226 0.136745 6.80748L3.76774 10.3266L2.9283 15.3105C2.89867 15.4784 2.9678 15.6463 3.10607 15.7451C3.18178 15.801 3.27395 15.8307 3.36613 15.8307C3.43855 15.8307 3.50768 15.8142 3.57352 15.778L8.04067 13.4111L12.521 15.7517C12.5868 15.7846 12.656 15.801 12.7251 15.801C12.9687 15.801 13.1695 15.6002 13.1695 15.3566C13.1695 15.3204 13.1662 15.2875 13.1563 15.2546L12.2906 10.3002L15.8985 6.76139C16.0269 6.64288 16.0697 6.46512 16.017 6.30381Z" fill="#4C40F7"/>
<path d="M42.0072 6.30381C41.9546 6.14251 41.8163 6.02729 41.6484 6.00096L36.6447 5.2899L34.393 0.763496C34.3173 0.612067 34.1626 0.516602 33.9947 0.516602C33.8268 0.516602 33.6721 0.612067 33.5964 0.766788L31.3743 5.30636L26.3706 6.05034C26.2027 6.07667 26.0644 6.19189 26.0118 6.35319C25.9591 6.5145 26.0052 6.69226 26.127 6.80748L29.758 10.3266L28.9185 15.3105C28.8889 15.4784 28.958 15.6463 29.0963 15.7451C29.172 15.801 29.2642 15.8307 29.3564 15.8307C29.4288 15.8307 29.4979 15.8142 29.5638 15.778L34.0309 13.4111L38.5112 15.7517C38.5771 15.7846 38.6462 15.801 38.7153 15.801C38.9589 15.801 39.1597 15.6002 39.1597 15.3566C39.1597 15.3204 39.1564 15.2875 39.1466 15.2546L38.2808 10.3002L41.8887 6.76139C42.0171 6.64288 42.0599 6.46512 42.0072 6.30381Z" fill="#4C40F7"/>
<path d="M67.9975 6.30381C67.9448 6.14251 67.8066 6.02729 67.6387 6.00096L62.635 5.2899L60.3833 0.763496C60.3076 0.612067 60.1528 0.516602 59.985 0.516602C59.8171 0.516602 59.6623 0.612067 59.5866 0.766788L57.3646 5.30636L52.3608 6.05034C52.193 6.07667 52.0547 6.19189 52.002 6.35319C51.9494 6.5145 51.9954 6.69226 52.1172 6.80748L55.7482 10.3266L54.9088 15.3105C54.8792 15.4784 54.9483 15.6463 55.0866 15.7451C55.1623 15.801 55.2545 15.8307 55.3466 15.8307C55.419 15.8307 55.4882 15.8142 55.554 15.778L60.0212 13.4111L64.5015 15.7517C64.5673 15.7846 64.6365 15.801 64.7056 15.801C64.9492 15.801 65.15 15.6002 65.15 15.3566C65.15 15.3204 65.1467 15.2875 65.1368 15.2546L64.2711 10.3002L67.879 6.76139C68.0074 6.64288 68.0502 6.46512 67.9975 6.30381Z" fill="#4C40F7"/>
<path d="M93.9877 6.30381C93.9351 6.14251 93.7968 6.02729 93.6289 6.00096L88.6252 5.2899L86.3735 0.763496C86.2978 0.612067 86.1431 0.516602 85.9752 0.516602C85.8073 0.516602 85.6526 0.612067 85.5769 0.766788L83.3548 5.30636L78.3511 6.05034C78.1832 6.07667 78.0449 6.19189 77.9923 6.35319C77.9396 6.5145 77.9857 6.69226 78.1075 6.80748L81.7385 10.3266L80.899 15.3105C80.8694 15.4784 80.9385 15.6463 81.0768 15.7451C81.1525 15.801 81.2447 15.8307 81.3369 15.8307C81.4093 15.8307 81.4784 15.8142 81.5443 15.778L86.0114 13.4111L90.4917 15.7517C90.5576 15.7846 90.6267 15.801 90.6958 15.801C90.9394 15.801 91.1402 15.6002 91.1402 15.3566C91.1402 15.3204 91.1369 15.2875 91.1271 15.2546L90.2613 10.3002L93.8692 6.76139C93.9976 6.64288 94.0404 6.46512 93.9877 6.30381Z" fill="#4C40F7"/>
<path d="M119.978 6.30381C119.925 6.14251 119.787 6.02729 119.619 6.00096L114.615 5.2899L112.364 0.763496C112.288 0.612067 112.133 0.516602 111.965 0.516602C111.798 0.516602 111.643 0.612067 111.567 0.766788L109.345 5.30636L104.341 6.05034C104.173 6.07667 104.035 6.19189 103.982 6.35319C103.93 6.5145 103.976 6.69226 104.098 6.80748L107.729 10.3266L106.889 15.3105C106.86 15.4784 106.929 15.6463 107.067 15.7451C107.143 15.801 107.235 15.8307 107.327 15.8307C107.4 15.8307 107.469 15.8142 107.534 15.778L112.002 13.4111L116.482 15.7517C116.548 15.7846 116.617 15.801 116.686 15.801C116.93 15.801 117.13 15.6002 117.13 15.3566C117.13 15.3204 117.127 15.2875 117.117 15.2546L116.252 10.3002L119.859 6.76139C119.988 6.64288 120.031 6.46512 119.978 6.30381Z" fill="#4C40F7"/>
</svg>
