<svg width="24" height="25" viewBox="0 0 24 25" fill="none" xmlns="http://www.w3.org/2000/svg">
<path d="M21.426 11.9252L4.42601 3.92525C4.25482 3.8447 4.0643 3.81436 3.87657 3.83776C3.68883 3.86115 3.51158 3.93733 3.36541 4.05743C3.21923 4.17753 3.11012 4.33664 3.05076 4.51627C2.99139 4.6959 2.98419 4.88869 3.03001 5.07225L4.24201 9.92124L12 12.8302L4.24201 15.7392L3.03001 20.5882C2.98333 20.7719 2.98992 20.9651 3.04902 21.1452C3.10811 21.3253 3.21726 21.4848 3.3637 21.6051C3.51014 21.7255 3.68782 21.8016 3.87594 21.8246C4.06406 21.8477 4.25486 21.8167 4.42601 21.7352L21.426 13.7352C21.5978 13.6545 21.7431 13.5265 21.8448 13.3662C21.9466 13.206 22.0006 13.0201 22.0006 12.8302C22.0006 12.6404 21.9466 12.4545 21.8448 12.2942C21.7431 12.134 21.5978 12.006 21.426 11.9252Z" fill="#ABAFC7"/>
</svg>
