<svg width="16" height="17" viewBox="0 0 16 17" fill="none" xmlns="http://www.w3.org/2000/svg">
<path d="M13.0887 6.16177C13.0973 6.27843 13.0973 6.39443 13.0973 6.51043C13.0973 10.0604 10.3953 14.1511 5.45734 14.1511C3.93601 14.1511 2.52268 13.7104 1.33334 12.9451C1.54934 12.9698 1.75734 12.9784 1.98201 12.9784C3.19067 12.9814 4.36511 12.5772 5.31601 11.8311C4.75562 11.821 4.21239 11.6361 3.76217 11.3023C3.31194 10.9684 2.9772 10.5024 2.80468 9.9691C2.97068 9.99377 3.13734 10.0104 3.31201 10.0104C3.55268 10.0104 3.79468 9.9771 4.01934 9.9191C3.41118 9.79631 2.86433 9.46667 2.47176 8.98622C2.07919 8.50578 1.86514 7.9042 1.86601 7.28377V7.25043C2.22401 7.44977 2.63934 7.57443 3.07934 7.5911C2.71074 7.34616 2.40849 7.01378 2.19957 6.62363C1.99065 6.23347 1.88155 5.79767 1.88201 5.3551C1.88201 4.85643 2.01468 4.3991 2.24734 4.00043C2.9221 4.83045 3.76368 5.50947 4.71757 5.99354C5.67146 6.4776 6.71638 6.75591 7.78468 6.81043C7.74334 6.61043 7.71801 6.4031 7.71801 6.1951C7.71783 5.84241 7.78717 5.49314 7.92206 5.16726C8.05695 4.84138 8.25474 4.54528 8.50414 4.29589C8.75353 4.0465 9.04962 3.84871 9.3755 3.71382C9.70138 3.57893 10.0507 3.50959 10.4033 3.50977C11.1767 3.50977 11.8747 3.83377 12.3653 4.35777C12.9665 4.24151 13.543 4.02205 14.0693 3.7091C13.869 4.32964 13.4492 4.85584 12.8887 5.1891C13.4219 5.12829 13.943 4.98807 14.4347 4.7731C14.0674 5.3085 13.6124 5.778 13.0887 6.16177Z" fill="white"/>
</svg>
